<mxfile host="app.diagrams.net" agent="Mozilla/5.0 (Windows NT 10.0; Win64; x64) AppleWebKit/537.36 (KHTML, like Gecko) Chrome/130.0.0.0 Safari/537.36 Edg/130.0.0.0" version="24.8.3">
  <diagram name="Page-1" id="J5Gu24UwoeY6La4aaxYZ">
    <mxGraphModel dx="2066" dy="1149" grid="1" gridSize="10" guides="1" tooltips="1" connect="1" arrows="1" fold="1" page="1" pageScale="1" pageWidth="827" pageHeight="1169" math="0" shadow="0">
      <root>
        <mxCell id="0" />
        <mxCell id="1" parent="0" />
        <mxCell id="m8KTcozJZx5YmvmLpE-X-16" style="edgeStyle=orthogonalEdgeStyle;rounded=0;orthogonalLoop=1;jettySize=auto;html=1;exitX=0.5;exitY=1;exitDx=0;exitDy=0;entryX=1;entryY=0.5;entryDx=0;entryDy=0;" edge="1" parent="1" source="m8KTcozJZx5YmvmLpE-X-2" target="m8KTcozJZx5YmvmLpE-X-4">
          <mxGeometry relative="1" as="geometry" />
        </mxCell>
        <mxCell id="m8KTcozJZx5YmvmLpE-X-2" value="&lt;font style=&quot;font-size: 14px;&quot; face=&quot;Times New Roman&quot;&gt;Accelerometer&lt;/font&gt;" style="whiteSpace=wrap;html=1;" vertex="1" parent="1">
          <mxGeometry x="80" y="160" width="120" height="60" as="geometry" />
        </mxCell>
        <mxCell id="m8KTcozJZx5YmvmLpE-X-17" style="edgeStyle=orthogonalEdgeStyle;rounded=0;orthogonalLoop=1;jettySize=auto;html=1;exitX=0.5;exitY=1;exitDx=0;exitDy=0;entryX=1;entryY=0.5;entryDx=0;entryDy=0;" edge="1" parent="1" source="m8KTcozJZx5YmvmLpE-X-3" target="m8KTcozJZx5YmvmLpE-X-5">
          <mxGeometry relative="1" as="geometry" />
        </mxCell>
        <mxCell id="m8KTcozJZx5YmvmLpE-X-3" value="&lt;font style=&quot;font-size: 14px;&quot; face=&quot;Times New Roman&quot;&gt;Microphone&lt;/font&gt;" style="whiteSpace=wrap;html=1;" vertex="1" parent="1">
          <mxGeometry x="640" y="160" width="120" height="60" as="geometry" />
        </mxCell>
        <mxCell id="m8KTcozJZx5YmvmLpE-X-21" style="edgeStyle=orthogonalEdgeStyle;rounded=0;orthogonalLoop=1;jettySize=auto;html=1;exitX=0;exitY=0.75;exitDx=0;exitDy=0;entryX=0.5;entryY=0;entryDx=0;entryDy=0;" edge="1" parent="1" source="m8KTcozJZx5YmvmLpE-X-4" target="m8KTcozJZx5YmvmLpE-X-9">
          <mxGeometry relative="1" as="geometry" />
        </mxCell>
        <mxCell id="m8KTcozJZx5YmvmLpE-X-4" value="&lt;div style=&quot;font-size: 14px;&quot;&gt;&lt;font style=&quot;font-size: 14px;&quot; face=&quot;Times New Roman&quot;&gt;&lt;br&gt;&lt;/font&gt;&lt;/div&gt;&lt;font style=&quot;font-size: 14px;&quot; face=&quot;jL03fJ3ng_61RlQcbXrk&quot;&gt;copy&lt;/font&gt;&lt;div style=&quot;font-size: 14px;&quot;&gt;&lt;font style=&quot;font-size: 14px;&quot; face=&quot;jL03fJ3ng_61RlQcbXrk&quot;&gt;signal&lt;/font&gt;&lt;/div&gt;" style="triangle;whiteSpace=wrap;html=1;direction=north;" vertex="1" parent="1">
          <mxGeometry x="100" y="280" width="80" height="60" as="geometry" />
        </mxCell>
        <mxCell id="m8KTcozJZx5YmvmLpE-X-19" style="edgeStyle=orthogonalEdgeStyle;rounded=0;orthogonalLoop=1;jettySize=auto;html=1;exitX=0;exitY=0.25;exitDx=0;exitDy=0;entryX=0.5;entryY=0;entryDx=0;entryDy=0;" edge="1" parent="1" source="m8KTcozJZx5YmvmLpE-X-5" target="m8KTcozJZx5YmvmLpE-X-10">
          <mxGeometry relative="1" as="geometry">
            <mxPoint x="680" y="360" as="targetPoint" />
          </mxGeometry>
        </mxCell>
        <mxCell id="m8KTcozJZx5YmvmLpE-X-5" value="&lt;div style=&quot;font-size: 14px;&quot;&gt;&lt;font style=&quot;font-size: 14px;&quot; face=&quot;Times New Roman&quot;&gt;&lt;br&gt;&lt;/font&gt;&lt;/div&gt;&lt;font style=&quot;font-size: 14px;&quot; face=&quot;XyUmuy1aIp9oYJ9tW8Yz&quot;&gt;copy&lt;/font&gt;&lt;div style=&quot;font-size: 14px;&quot;&gt;&lt;font style=&quot;font-size: 14px;&quot; face=&quot;XyUmuy1aIp9oYJ9tW8Yz&quot;&gt;signal&lt;/font&gt;&lt;/div&gt;" style="triangle;whiteSpace=wrap;html=1;direction=north;" vertex="1" parent="1">
          <mxGeometry x="660" y="280" width="80" height="60" as="geometry" />
        </mxCell>
        <mxCell id="m8KTcozJZx5YmvmLpE-X-6" value="&lt;font style=&quot;font-size: 14px;&quot; face=&quot;Times New Roman&quot;&gt;Input Anti-aliasing&lt;/font&gt;&lt;div style=&quot;font-size: 14px;&quot;&gt;&lt;font style=&quot;font-size: 14px;&quot; face=&quot;lTDGk1eCLMmDKs5mCiXz&quot;&gt;Filter&lt;/font&gt;&lt;/div&gt;" style="whiteSpace=wrap;html=1;" vertex="1" parent="1">
          <mxGeometry x="80" y="400" width="120" height="60" as="geometry" />
        </mxCell>
        <mxCell id="m8KTcozJZx5YmvmLpE-X-7" value="&lt;font style=&quot;font-size: 14px;&quot; face=&quot;Times New Roman&quot;&gt;Input Anti-aliasing&lt;/font&gt;&lt;div style=&quot;font-size: 14px;&quot;&gt;&lt;font face=&quot;lTDGk1eCLMmDKs5mCiXz&quot;&gt;Filter&lt;/font&gt;&lt;/div&gt;" style="whiteSpace=wrap;html=1;" vertex="1" parent="1">
          <mxGeometry x="640" y="400" width="120" height="60" as="geometry" />
        </mxCell>
        <mxCell id="m8KTcozJZx5YmvmLpE-X-55" style="edgeStyle=orthogonalEdgeStyle;rounded=0;orthogonalLoop=1;jettySize=auto;html=1;exitX=0.5;exitY=1;exitDx=0;exitDy=0;entryX=0.5;entryY=0;entryDx=0;entryDy=0;" edge="1" parent="1" source="m8KTcozJZx5YmvmLpE-X-8" target="m8KTcozJZx5YmvmLpE-X-53">
          <mxGeometry relative="1" as="geometry" />
        </mxCell>
        <mxCell id="m8KTcozJZx5YmvmLpE-X-8" value="" style="whiteSpace=wrap;html=1;" vertex="1" parent="1">
          <mxGeometry x="300" y="520" width="240" height="250" as="geometry" />
        </mxCell>
        <mxCell id="m8KTcozJZx5YmvmLpE-X-43" style="edgeStyle=orthogonalEdgeStyle;rounded=0;orthogonalLoop=1;jettySize=auto;html=1;exitX=0.5;exitY=1;exitDx=0;exitDy=0;entryX=0.25;entryY=0;entryDx=0;entryDy=0;" edge="1" parent="1" source="m8KTcozJZx5YmvmLpE-X-9" target="m8KTcozJZx5YmvmLpE-X-8">
          <mxGeometry relative="1" as="geometry" />
        </mxCell>
        <mxCell id="m8KTcozJZx5YmvmLpE-X-9" value="&lt;font style=&quot;font-size: 14px;&quot; face=&quot;Times New Roman&quot;&gt;Analogue&lt;/font&gt;&lt;div style=&quot;font-size: 14px;&quot;&gt;&lt;font face=&quot;Times New Roman&quot;&gt;Bandpass&lt;/font&gt;&lt;/div&gt;&lt;div style=&quot;font-size: 14px;&quot;&gt;&lt;font face=&quot;Times New Roman&quot;&gt;Filter&lt;/font&gt;&lt;/div&gt;" style="whiteSpace=wrap;html=1;" vertex="1" parent="1">
          <mxGeometry x="240" y="400" width="120" height="60" as="geometry" />
        </mxCell>
        <mxCell id="m8KTcozJZx5YmvmLpE-X-44" style="edgeStyle=orthogonalEdgeStyle;rounded=0;orthogonalLoop=1;jettySize=auto;html=1;exitX=0.5;exitY=1;exitDx=0;exitDy=0;entryX=0.75;entryY=0;entryDx=0;entryDy=0;" edge="1" parent="1" source="m8KTcozJZx5YmvmLpE-X-10" target="m8KTcozJZx5YmvmLpE-X-8">
          <mxGeometry relative="1" as="geometry" />
        </mxCell>
        <mxCell id="m8KTcozJZx5YmvmLpE-X-10" value="&lt;font style=&quot;font-size: 14px;&quot; face=&quot;Times New Roman&quot;&gt;Analogue&lt;/font&gt;&lt;div style=&quot;font-size: 14px;&quot;&gt;&lt;font style=&quot;font-size: 14px;&quot; face=&quot;Times New Roman&quot;&gt;Bandpass&lt;/font&gt;&lt;/div&gt;&lt;div style=&quot;font-size: 14px;&quot;&gt;&lt;font style=&quot;font-size: 14px;&quot; face=&quot;Times New Roman&quot;&gt;Filter&lt;/font&gt;&lt;/div&gt;" style="whiteSpace=wrap;html=1;" vertex="1" parent="1">
          <mxGeometry x="480" y="400" width="120" height="60" as="geometry" />
        </mxCell>
        <mxCell id="m8KTcozJZx5YmvmLpE-X-14" value="" style="edgeStyle=orthogonalEdgeStyle;rounded=0;orthogonalLoop=1;jettySize=auto;html=1;" edge="1" parent="1" source="m8KTcozJZx5YmvmLpE-X-11" target="m8KTcozJZx5YmvmLpE-X-2">
          <mxGeometry relative="1" as="geometry" />
        </mxCell>
        <mxCell id="m8KTcozJZx5YmvmLpE-X-11" value="&lt;font style=&quot;font-size: 14px;&quot; face=&quot;Times New Roman&quot;&gt;Input Bee Vibrations&lt;/font&gt;" style="text;html=1;align=center;verticalAlign=middle;resizable=0;points=[];autosize=1;strokeColor=none;fillColor=none;" vertex="1" parent="1">
          <mxGeometry x="70" y="78" width="140" height="30" as="geometry" />
        </mxCell>
        <mxCell id="m8KTcozJZx5YmvmLpE-X-12" value="&lt;font style=&quot;font-size: 14px;&quot; face=&quot;Times New Roman&quot;&gt;Input Bee Sounds&lt;/font&gt;" style="text;html=1;align=center;verticalAlign=middle;resizable=0;points=[];autosize=1;strokeColor=none;fillColor=none;" vertex="1" parent="1">
          <mxGeometry x="640" y="78" width="120" height="30" as="geometry" />
        </mxCell>
        <mxCell id="m8KTcozJZx5YmvmLpE-X-13" value="" style="endArrow=classic;html=1;rounded=0;entryX=0.5;entryY=0;entryDx=0;entryDy=0;" edge="1" parent="1" target="m8KTcozJZx5YmvmLpE-X-2">
          <mxGeometry width="50" height="50" relative="1" as="geometry">
            <mxPoint x="140" y="120" as="sourcePoint" />
            <mxPoint x="560" y="560" as="targetPoint" />
          </mxGeometry>
        </mxCell>
        <mxCell id="m8KTcozJZx5YmvmLpE-X-15" value="" style="endArrow=classic;html=1;rounded=0;entryX=0.5;entryY=0;entryDx=0;entryDy=0;exitX=0.5;exitY=1.067;exitDx=0;exitDy=0;exitPerimeter=0;" edge="1" parent="1" source="m8KTcozJZx5YmvmLpE-X-12" target="m8KTcozJZx5YmvmLpE-X-3">
          <mxGeometry width="50" height="50" relative="1" as="geometry">
            <mxPoint x="510" y="610" as="sourcePoint" />
            <mxPoint x="560" y="560" as="targetPoint" />
          </mxGeometry>
        </mxCell>
        <mxCell id="m8KTcozJZx5YmvmLpE-X-18" style="edgeStyle=orthogonalEdgeStyle;rounded=0;orthogonalLoop=1;jettySize=auto;html=1;exitX=0;exitY=0.75;exitDx=0;exitDy=0;entryX=0.672;entryY=-0.033;entryDx=0;entryDy=0;entryPerimeter=0;" edge="1" parent="1" source="m8KTcozJZx5YmvmLpE-X-5" target="m8KTcozJZx5YmvmLpE-X-7">
          <mxGeometry relative="1" as="geometry" />
        </mxCell>
        <mxCell id="m8KTcozJZx5YmvmLpE-X-20" style="edgeStyle=orthogonalEdgeStyle;rounded=0;orthogonalLoop=1;jettySize=auto;html=1;exitX=0;exitY=0.25;exitDx=0;exitDy=0;entryX=0.328;entryY=0.022;entryDx=0;entryDy=0;entryPerimeter=0;" edge="1" parent="1" source="m8KTcozJZx5YmvmLpE-X-4" target="m8KTcozJZx5YmvmLpE-X-6">
          <mxGeometry relative="1" as="geometry" />
        </mxCell>
        <mxCell id="m8KTcozJZx5YmvmLpE-X-36" style="edgeStyle=orthogonalEdgeStyle;rounded=0;orthogonalLoop=1;jettySize=auto;html=1;exitX=0.5;exitY=1;exitDx=0;exitDy=0;entryX=0.5;entryY=0;entryDx=0;entryDy=0;" edge="1" parent="1" source="m8KTcozJZx5YmvmLpE-X-22" target="m8KTcozJZx5YmvmLpE-X-24">
          <mxGeometry relative="1" as="geometry" />
        </mxCell>
        <mxCell id="m8KTcozJZx5YmvmLpE-X-22" value="&lt;font style=&quot;font-size: 14px;&quot; face=&quot;Times New Roman&quot;&gt;Digital&lt;/font&gt;&lt;div style=&quot;font-size: 14px;&quot;&gt;&lt;font style=&quot;font-size: 14px;&quot; face=&quot;cwAcvNJ4TQ48M1AqgvH9&quot;&gt;BPF&lt;/font&gt;&lt;/div&gt;" style="whiteSpace=wrap;html=1;" vertex="1" parent="1">
          <mxGeometry x="330" y="570" width="80" height="50" as="geometry" />
        </mxCell>
        <mxCell id="m8KTcozJZx5YmvmLpE-X-37" style="edgeStyle=orthogonalEdgeStyle;rounded=0;orthogonalLoop=1;jettySize=auto;html=1;exitX=0.5;exitY=1;exitDx=0;exitDy=0;entryX=0.5;entryY=0;entryDx=0;entryDy=0;" edge="1" parent="1" source="m8KTcozJZx5YmvmLpE-X-23" target="m8KTcozJZx5YmvmLpE-X-25">
          <mxGeometry relative="1" as="geometry" />
        </mxCell>
        <mxCell id="m8KTcozJZx5YmvmLpE-X-23" value="&lt;font style=&quot;font-size: 14px;&quot; face=&quot;Times New Roman&quot;&gt;Digital&lt;/font&gt;&lt;div style=&quot;font-size: 14px;&quot;&gt;&lt;font style=&quot;font-size: 14px;&quot; face=&quot;dWgHkMYXXi90JTZZvwNM&quot;&gt;BPF&lt;/font&gt;&lt;/div&gt;" style="whiteSpace=wrap;html=1;" vertex="1" parent="1">
          <mxGeometry x="430" y="570" width="80" height="50" as="geometry" />
        </mxCell>
        <mxCell id="m8KTcozJZx5YmvmLpE-X-46" style="edgeStyle=orthogonalEdgeStyle;rounded=0;orthogonalLoop=1;jettySize=auto;html=1;exitX=0.5;exitY=1;exitDx=0;exitDy=0;entryX=0.25;entryY=0;entryDx=0;entryDy=0;" edge="1" parent="1" source="m8KTcozJZx5YmvmLpE-X-24" target="m8KTcozJZx5YmvmLpE-X-27">
          <mxGeometry relative="1" as="geometry">
            <Array as="points">
              <mxPoint x="370" y="670" />
              <mxPoint x="393" y="670" />
            </Array>
          </mxGeometry>
        </mxCell>
        <mxCell id="m8KTcozJZx5YmvmLpE-X-24" value="&lt;font style=&quot;font-size: 14px;&quot; face=&quot;Times New Roman&quot;&gt;FFT&lt;/font&gt;" style="whiteSpace=wrap;html=1;" vertex="1" parent="1">
          <mxGeometry x="345" y="640" width="50" height="20" as="geometry" />
        </mxCell>
        <mxCell id="m8KTcozJZx5YmvmLpE-X-47" style="edgeStyle=orthogonalEdgeStyle;rounded=0;orthogonalLoop=1;jettySize=auto;html=1;exitX=0.5;exitY=1;exitDx=0;exitDy=0;entryX=0.75;entryY=0;entryDx=0;entryDy=0;" edge="1" parent="1" source="m8KTcozJZx5YmvmLpE-X-25" target="m8KTcozJZx5YmvmLpE-X-27">
          <mxGeometry relative="1" as="geometry">
            <Array as="points">
              <mxPoint x="470" y="670" />
              <mxPoint x="448" y="670" />
            </Array>
          </mxGeometry>
        </mxCell>
        <mxCell id="m8KTcozJZx5YmvmLpE-X-25" value="&lt;font style=&quot;font-size: 14px;&quot; face=&quot;Times New Roman&quot;&gt;FFT&lt;/font&gt;" style="whiteSpace=wrap;html=1;" vertex="1" parent="1">
          <mxGeometry x="445" y="640" width="50" height="20" as="geometry" />
        </mxCell>
        <mxCell id="m8KTcozJZx5YmvmLpE-X-27" value="&lt;font style=&quot;font-size: 14px;&quot; face=&quot;Times New Roman&quot;&gt;Process&lt;/font&gt;" style="whiteSpace=wrap;html=1;" vertex="1" parent="1">
          <mxGeometry x="365" y="680" width="110" height="40" as="geometry" />
        </mxCell>
        <mxCell id="m8KTcozJZx5YmvmLpE-X-30" style="edgeStyle=orthogonalEdgeStyle;rounded=0;orthogonalLoop=1;jettySize=auto;html=1;exitX=0.5;exitY=1;exitDx=0;exitDy=0;entryX=0;entryY=0.5;entryDx=0;entryDy=0;" edge="1" parent="1" source="m8KTcozJZx5YmvmLpE-X-6" target="m8KTcozJZx5YmvmLpE-X-22">
          <mxGeometry relative="1" as="geometry" />
        </mxCell>
        <mxCell id="m8KTcozJZx5YmvmLpE-X-31" style="edgeStyle=orthogonalEdgeStyle;rounded=0;orthogonalLoop=1;jettySize=auto;html=1;exitX=0.5;exitY=1;exitDx=0;exitDy=0;entryX=1;entryY=0.5;entryDx=0;entryDy=0;" edge="1" parent="1" source="m8KTcozJZx5YmvmLpE-X-7" target="m8KTcozJZx5YmvmLpE-X-23">
          <mxGeometry relative="1" as="geometry" />
        </mxCell>
        <mxCell id="m8KTcozJZx5YmvmLpE-X-41" value="&lt;font style=&quot;font-size: 17px;&quot; face=&quot;Times New Roman&quot;&gt;MCU&lt;/font&gt;" style="text;html=1;align=center;verticalAlign=middle;resizable=0;points=[];autosize=1;strokeColor=none;fillColor=none;" vertex="1" parent="1">
          <mxGeometry x="390" y="530" width="60" height="30" as="geometry" />
        </mxCell>
        <mxCell id="m8KTcozJZx5YmvmLpE-X-52" style="edgeStyle=orthogonalEdgeStyle;rounded=0;orthogonalLoop=1;jettySize=auto;html=1;exitX=1;exitY=0.5;exitDx=0;exitDy=0;entryX=0;entryY=0.5;entryDx=0;entryDy=0;" edge="1" parent="1" source="m8KTcozJZx5YmvmLpE-X-48" target="m8KTcozJZx5YmvmLpE-X-8">
          <mxGeometry relative="1" as="geometry" />
        </mxCell>
        <mxCell id="m8KTcozJZx5YmvmLpE-X-48" value="&lt;font style=&quot;font-size: 14px;&quot; face=&quot;Times New Roman&quot;&gt;Temperature&lt;/font&gt;&lt;div style=&quot;font-size: 14px;&quot;&gt;&lt;font style=&quot;font-size: 14px;&quot; face=&quot;aMQIDSs4MO4cSh3Q_YIG&quot;&gt;Sensors&lt;/font&gt;&lt;/div&gt;" style="whiteSpace=wrap;html=1;" vertex="1" parent="1">
          <mxGeometry x="80" y="615" width="120" height="60" as="geometry" />
        </mxCell>
        <mxCell id="m8KTcozJZx5YmvmLpE-X-51" style="edgeStyle=orthogonalEdgeStyle;rounded=0;orthogonalLoop=1;jettySize=auto;html=1;exitX=0;exitY=0.5;exitDx=0;exitDy=0;entryX=1;entryY=0.5;entryDx=0;entryDy=0;" edge="1" parent="1" source="m8KTcozJZx5YmvmLpE-X-49" target="m8KTcozJZx5YmvmLpE-X-8">
          <mxGeometry relative="1" as="geometry" />
        </mxCell>
        <mxCell id="m8KTcozJZx5YmvmLpE-X-49" value="&lt;font face=&quot;Times New Roman&quot;&gt;&lt;span style=&quot;font-size: 14px;&quot;&gt;Humidity&lt;/span&gt;&lt;/font&gt;&lt;br&gt;&lt;div style=&quot;font-size: 14px;&quot;&gt;&lt;font style=&quot;font-size: 14px;&quot; face=&quot;Times New Roman&quot;&gt;Sensors&lt;/font&gt;&lt;/div&gt;" style="whiteSpace=wrap;html=1;" vertex="1" parent="1">
          <mxGeometry x="640" y="615" width="120" height="60" as="geometry" />
        </mxCell>
        <mxCell id="m8KTcozJZx5YmvmLpE-X-56" style="edgeStyle=orthogonalEdgeStyle;rounded=0;orthogonalLoop=1;jettySize=auto;html=1;exitX=0.5;exitY=1;exitDx=0;exitDy=0;" edge="1" parent="1" source="m8KTcozJZx5YmvmLpE-X-53" target="m8KTcozJZx5YmvmLpE-X-54">
          <mxGeometry relative="1" as="geometry" />
        </mxCell>
        <mxCell id="m8KTcozJZx5YmvmLpE-X-53" value="&lt;font style=&quot;font-size: 14px;&quot; face=&quot;Times New Roman&quot;&gt;LoRa WAN&lt;/font&gt;" style="whiteSpace=wrap;html=1;" vertex="1" parent="1">
          <mxGeometry x="360" y="820" width="120" height="90" as="geometry" />
        </mxCell>
        <mxCell id="m8KTcozJZx5YmvmLpE-X-54" value="&lt;font style=&quot;font-size: 14px;&quot; face=&quot;Times New Roman&quot;&gt;MCU&lt;/font&gt;&lt;div style=&quot;font-size: 14px;&quot;&gt;&lt;font style=&quot;font-size: 14px;&quot; face=&quot;Times New Roman&quot;&gt;(WiFi capable)&lt;/font&gt;&lt;/div&gt;" style="whiteSpace=wrap;html=1;" vertex="1" parent="1">
          <mxGeometry x="360" y="950" width="120" height="90" as="geometry" />
        </mxCell>
        <mxCell id="m8KTcozJZx5YmvmLpE-X-58" style="edgeStyle=orthogonalEdgeStyle;rounded=0;orthogonalLoop=1;jettySize=auto;html=1;exitX=1;exitY=0.5;exitDx=0;exitDy=0;entryX=0;entryY=0.75;entryDx=0;entryDy=0;" edge="1" parent="1" source="m8KTcozJZx5YmvmLpE-X-57" target="m8KTcozJZx5YmvmLpE-X-8">
          <mxGeometry relative="1" as="geometry" />
        </mxCell>
        <mxCell id="m8KTcozJZx5YmvmLpE-X-57" value="&lt;font style=&quot;font-size: 14px;&quot; face=&quot;Times New Roman&quot;&gt;Load Cell&lt;/font&gt;" style="whiteSpace=wrap;html=1;" vertex="1" parent="1">
          <mxGeometry x="80" y="700" width="120" height="60" as="geometry" />
        </mxCell>
        <mxCell id="m8KTcozJZx5YmvmLpE-X-60" style="edgeStyle=orthogonalEdgeStyle;rounded=0;orthogonalLoop=1;jettySize=auto;html=1;exitX=0;exitY=0.5;exitDx=0;exitDy=0;entryX=1;entryY=0.75;entryDx=0;entryDy=0;" edge="1" parent="1" source="m8KTcozJZx5YmvmLpE-X-59" target="m8KTcozJZx5YmvmLpE-X-8">
          <mxGeometry relative="1" as="geometry" />
        </mxCell>
        <mxCell id="m8KTcozJZx5YmvmLpE-X-59" value="&lt;font style=&quot;font-size: 14px;&quot; face=&quot;Times New Roman&quot;&gt;Light Sensor&lt;/font&gt;" style="whiteSpace=wrap;html=1;" vertex="1" parent="1">
          <mxGeometry x="640" y="700" width="120" height="60" as="geometry" />
        </mxCell>
      </root>
    </mxGraphModel>
  </diagram>
</mxfile>
